<svg width="44" height="45" viewBox="0 0 44 45" fill="none" xmlns="http://www.w3.org/2000/svg">
<g clip-path="url(#clip0_3_74)">
<path d="M13.9245 0.816147L18.5734 0.816147V2.7601H15.8684V4.70405H18.5734V6.648H13.9245V0.816147ZM19.5021 0.816147L24.1528 0.816147V2.50764L21.4478 2.50764V2.84485H24.1528V6.73275L19.5021 6.73275V4.95831L22.207 4.95831V4.61929H19.5021V0.816147ZM25.0833 0.816147L29.7304 0.816147V2.50764H27.0254V2.84485H29.7304V6.73275H25.0833V4.95831H27.7882V4.61929L25.0833 4.61929V0.816147Z" fill="white"/>
<path fill-rule="evenodd" clip-rule="evenodd" d="M22.0195 44.0952L9.4974 40.6184L5.80606 9.32228L38.2653 9.32228L34.5758 40.6148L22.0195 44.0952ZM13.104 23.489L13.4484 27.3264H26.7513L26.3059 32.3035L22.0249 33.4612H22.0213L17.7475 32.3071L17.4734 29.2469H13.6197L14.1571 35.2735L22.0195 37.4555L29.8945 35.2735L30.8538 24.5186L30.9476 23.489L31.64 15.7186L12.4133 15.7186L12.7632 19.5578H27.4348L27.0849 23.489H13.104Z" fill="white"/>
</g>
<defs>
<clipPath id="clip0_3_74">
<rect width="43.279" height="43.279" fill="white" transform="translate(0.396179 0.816147)"/>
</clipPath>
</defs>
</svg>
