<svg width="67" height="67" viewBox="0 0 67 67" fill="none" xmlns="http://www.w3.org/2000/svg">
<path d="M42.9784 23.9836C45.3673 23.912 47.6344 22.9126 49.2988 21.1975C50.9632 19.4823 51.8941 17.1863 51.8941 14.7964C51.8941 12.4064 50.9632 10.1104 49.2988 8.39525C47.6344 6.68012 45.3673 5.68075 42.9784 5.60905L24.6011 5.60905C22.2122 5.68075 19.9451 6.68012 18.2807 8.39525C16.6163 10.1104 15.6854 12.4064 15.6854 14.7964C15.6854 17.1863 16.6163 19.4823 18.2807 21.1975C19.9451 22.9126 22.2122 23.912 24.6011 23.9836C22.1913 24.0254 19.8943 25.012 18.2049 26.7309C16.5155 28.4498 15.5688 30.7636 15.5688 33.1737C15.5688 35.5838 16.5155 37.8976 18.2049 39.6165C19.8943 41.3354 22.1913 42.322 24.6011 42.3638C22.2031 42.4225 19.923 43.4164 18.2478 45.1332C16.5725 46.85 15.6348 49.1537 15.6348 51.5524C15.6348 53.9512 16.5725 56.2549 18.2478 57.9717C19.923 59.6885 22.2031 60.6824 24.6011 60.7411C27.0381 60.7397 29.3748 59.7707 31.0978 58.0472C32.8208 56.3237 33.789 53.9867 33.7898 51.5497V23.9836H42.9784Z" fill="white"/>
<path d="M42.9784 42.361C48.0532 42.361 52.1671 38.2471 52.1671 33.1723C52.1671 28.0976 48.0532 23.9836 42.9784 23.9836C37.9036 23.9836 33.7897 28.0976 33.7897 33.1723C33.7897 38.2471 37.9036 42.361 42.9784 42.361Z" fill="white"/>
</svg>
