<svg width="40" height="40" viewBox="0 0 40 40" fill="none" xmlns="http://www.w3.org/2000/svg">
<path d="M2.87698 2.82556L2.87698 36.8181H36.8696V2.82556L2.87698 2.82556ZM21.3762 29.3361C21.3762 32.6443 19.4338 34.1546 16.6039 34.1546C14.0472 34.1546 12.5673 32.8349 11.8085 31.2336L14.4114 29.6627C14.9128 30.5501 15.368 31.3016 16.4679 31.3016C17.5144 31.3016 18.1821 30.8913 18.1821 29.2912V18.433H21.3762V29.3361ZM28.9323 34.1546C25.9652 34.1546 24.0459 32.7439 23.1123 30.8913L25.7151 29.3895C26.3986 30.5052 27.2934 31.332 28.8643 31.332C30.1839 31.332 31.035 30.6715 31.035 29.7537C31.035 28.6611 30.1694 28.2739 28.7053 27.6292L27.9089 27.2881C25.6022 26.3096 24.0774 25.0725 24.0774 22.4696C24.0774 20.0719 25.9057 18.2509 28.7514 18.2509C30.7849 18.2509 32.2417 18.9563 33.2894 20.8076L30.8007 22.4016C30.2544 21.4231 29.6619 21.0359 28.7441 21.0359C27.8117 21.0359 27.2193 21.6283 27.2193 22.4016C27.2193 23.3583 27.8118 23.7443 29.1848 24.3441L29.9812 24.6852C32.6982 25.8458 34.223 27.038 34.223 29.7076C34.223 32.5763 31.9613 34.1534 28.9335 34.1534L28.9323 34.1546Z" fill="white"/>
</svg>
