<svg width="25" height="28" viewBox="0 0 25 28" fill="none" xmlns="http://www.w3.org/2000/svg">
<path d="M20.2978 23.5709C19.2939 24.5672 18.2867 25.5606 17.2879 26.562C16.829 27.0533 16.2647 27.4342 15.6373 27.6758C13.8826 28.2994 12.2539 28.043 10.9214 26.7357C7.68274 23.5575 4.48228 20.3403 1.28855 17.1163C0.879 16.7056 0.554405 16.2182 0.33331 15.682C0.112215 15.1459 -0.00104507 14.5713 7.26623e-06 13.9914C0.0010596 13.4114 0.116393 12.8373 0.339432 12.3019C0.562471 11.7665 0.888834 11.2803 1.29987 10.8711C4.48186 7.66281 7.67742 4.46767 10.8865 1.28568C11.7135 0.463662 12.8317 0.00157602 13.9978 4.02395e-06C15.1638 -0.00156797 16.2832 0.457503 17.1124 1.27729C19.278 3.40701 21.4263 5.55435 23.5574 7.71932C24.3716 8.53457 24.8333 9.6368 24.8432 10.7889C24.8531 11.9411 24.4104 13.0511 23.6103 13.8802C21.6378 15.9232 19.6053 17.9066 17.5997 19.9164C17.5267 19.9894 17.4595 20.0679 17.3899 20.1438C17.1918 20.2588 17.196 20.3612 17.3638 20.5262C18.2972 21.444 19.2201 22.3728 20.1429 23.3015C20.2151 23.3737 20.3477 23.4245 20.2999 23.5709H20.2978ZM20.3045 10.8547C20.281 10.7393 20.1933 10.6894 20.1291 10.6247C18.1555 8.64863 16.1819 6.67237 14.2083 4.69597C14.0597 4.54699 13.9787 4.51845 13.813 4.68548C10.7762 7.73513 7.73393 10.7778 4.68624 13.8134C4.5318 13.9675 4.5444 14.0426 4.69128 14.1886C7.7359 17.2277 10.7767 20.2705 13.8138 23.317C13.9624 23.4664 14.0392 23.4719 14.1915 23.317C15.1114 22.382 16.0385 21.4544 16.9727 20.5341C17.1259 20.3835 17.1448 20.2995 16.9802 20.138C16.0507 19.2256 15.1391 18.296 14.2104 17.3841C14.0392 17.2162 14.0203 17.1322 14.2041 16.9501C16.1808 14.9916 18.1511 13.0256 20.1152 11.052C20.1811 10.9861 20.2437 10.9168 20.3032 10.8543" fill="#97C93F"/>
</svg>
