<svg width="211" height="67" viewBox="0 0 211 67" fill="none" xmlns="http://www.w3.org/2000/svg">
<g clip-path="url(#clip0_2_5)">
<path d="M48.366 56.164C45.974 58.538 43.574 60.905 41.194 63.291C40.1007 64.4619 38.7559 65.3693 37.261 65.945C33.08 67.431 29.199 66.82 26.024 63.705C18.307 56.132 10.681 48.466 3.071 40.784C2.09514 39.8054 1.3217 38.6441 0.794878 37.3665C0.268057 36.0888 -0.00181878 34.7199 0.000688701 33.3379C0.00319618 31.9559 0.278011 30.588 0.809466 29.3122C1.34092 28.0365 2.11857 26.878 3.09798 25.903C10.68 18.2583 18.2943 10.645 25.941 3.063C27.9115 1.1043 30.576 0.00325178 33.3544 -0.000493952C36.1328 -0.00423968 38.8002 1.08963 40.776 3.043C45.936 8.11767 51.055 13.2343 56.133 18.393C58.073 20.3356 59.1731 22.962 59.1966 25.7072C59.2202 28.4525 58.1654 31.0974 56.259 33.073C51.559 37.941 46.716 42.667 41.937 47.456C41.763 47.63 41.603 47.817 41.437 47.998C40.965 48.272 40.975 48.516 41.375 48.909C43.599 51.096 45.798 53.309 47.997 55.522C48.169 55.694 48.485 55.815 48.371 56.164H48.366ZM48.382 25.864C48.326 25.589 48.117 25.47 47.964 25.316C43.2613 20.6073 38.5587 15.8983 33.856 11.189C33.502 10.834 33.309 10.766 32.914 11.164C25.678 18.4307 18.429 25.6807 11.167 32.914C10.799 33.281 10.829 33.46 11.179 33.808C18.4337 41.0493 25.6793 48.2997 32.916 55.559C33.27 55.915 33.453 55.928 33.816 55.559C36.008 53.331 38.217 51.1207 40.443 48.928C40.808 48.569 40.853 48.369 40.461 47.984C38.246 45.81 36.074 43.595 33.861 41.422C33.453 41.022 33.408 40.822 33.846 40.388C38.556 35.7213 43.251 31.0367 47.931 26.334C48.088 26.177 48.237 26.012 48.379 25.863" fill="#97C93F"/>
<path d="M73.192 33.451C73.192 27.136 73.202 20.82 73.176 14.505C73.176 13.894 73.34 13.78 73.916 13.783C79.13 13.807 84.345 13.789 89.559 13.8C92.7767 13.7054 95.9245 14.7494 98.448 16.748C99.9287 17.9469 101.133 19.4514 101.979 21.1586C102.825 22.8659 103.292 24.7356 103.348 26.64C103.561 28.7402 103.274 30.8609 102.512 32.8293C101.749 34.7976 100.531 36.5577 98.959 37.966C96.5406 40.1313 93.4051 41.3228 90.159 41.31C86.968 41.376 83.776 41.348 80.585 41.319C79.963 41.313 79.758 41.419 79.765 42.103C79.807 45.563 79.774 49.025 79.795 52.485C79.795 52.985 79.705 53.179 79.147 53.164C77.394 53.123 75.64 53.127 73.888 53.164C73.335 53.176 73.178 53.029 73.181 52.464C73.202 46.126 73.194 39.788 73.194 33.45L73.192 33.451ZM79.662 27.55C79.662 30.044 79.675 32.536 79.651 35.03C79.651 35.506 79.784 35.63 80.251 35.63C83.284 35.609 86.315 35.624 89.351 35.617C90.1153 35.6224 90.8766 35.5214 91.613 35.317C94.892 34.374 96.991 31.428 97.082 27.681C97.19 23.288 94.289 19.342 89.063 19.465C86.144 19.534 83.223 19.493 80.303 19.465C79.75 19.459 79.647 19.632 79.651 20.141C79.677 22.612 79.663 25.082 79.663 27.552" fill="white"/>
<path d="M142.65 48.005C142.22 48.54 141.924 49.136 141.513 49.657C140.521 50.9479 139.227 51.975 137.745 52.6478C136.263 53.3206 134.638 53.6184 133.013 53.515C126.876 53.334 122.656 49.545 121.451 43.298C120.742 40.1665 120.952 36.8967 122.057 33.882C122.831 31.8303 124.131 30.0182 125.827 28.6272C127.522 27.2363 129.554 26.3155 131.717 25.957C136.961 24.9385 142.392 25.5984 147.239 27.843C147.627 28.007 147.614 28.267 147.613 28.585C147.613 34.2277 147.613 39.8703 147.613 45.513C147.613 45.961 147.604 46.413 147.648 46.86C147.784 48.241 148.402 48.86 149.793 48.818C150.475 48.798 150.544 49.046 150.522 49.603C150.484 50.568 150.512 51.536 150.513 52.503C150.513 52.75 150.551 52.991 150.182 53.043C148.721 53.3201 147.221 53.316 145.762 53.031C144.87 52.8523 144.069 52.3653 143.499 51.6554C142.93 50.9455 142.629 50.0578 142.648 49.148C142.631 48.767 142.648 48.385 142.648 48.003L142.65 48.005ZM141.692 36.148C141.692 34.718 141.671 33.414 141.704 32.112C141.733 31.9396 141.694 31.7628 141.596 31.6182C141.498 31.4735 141.348 31.3722 141.177 31.335C139.002 30.5154 136.659 30.2467 134.355 30.553C132.818 30.6753 131.356 31.2673 130.167 32.2486C128.978 33.23 128.12 34.5532 127.708 36.039C126.993 38.3302 127.015 40.788 127.771 43.066C129.252 47.709 133.431 48.696 136.683 47.778C139.318 47.035 140.599 45.017 141.283 42.524C141.689 40.425 141.828 38.2829 141.695 36.149" fill="white"/>
<path d="M185.352 47.844H189.185C192.309 47.844 195.434 47.853 198.558 47.835C199.002 47.835 199.187 47.903 199.175 48.409C199.138 49.824 199.151 51.242 199.169 52.658C199.175 53.027 199.089 53.158 198.69 53.158C191.497 53.1467 184.304 53.1433 177.11 53.148C176.636 53.148 176.41 52.369 176.702 51.748C176.777 51.6094 176.862 51.4758 176.954 51.348C181.197 44.685 185.419 38.008 190.007 31.574C190.107 31.436 190.195 31.291 190.348 31.059H189.592C185.749 31.059 181.904 31.048 178.061 31.072C177.556 31.072 177.42 30.954 177.436 30.447C177.475 29.167 177.468 27.885 177.436 26.604C177.427 26.173 177.536 26.043 177.982 26.044C184.861 26.0593 191.74 26.0593 198.619 26.044C199.191 26.044 199.235 26.268 199.196 26.705C199.146 26.947 199.035 27.1722 198.873 27.359C194.545 34.074 190.273 40.823 185.673 47.359C185.586 47.483 185.506 47.612 185.35 47.847" fill="white"/>
<path d="M157.348 37.722C157.348 35.722 157.333 33.722 157.36 31.722C157.366 31.222 157.281 31.03 156.721 31.048C155.283 31.095 153.843 31.048 152.404 31.071C151.996 31.077 151.809 31.016 151.822 30.536C151.859 29.236 151.857 27.927 151.822 26.624C151.809 26.151 151.988 26.076 152.404 26.082C153.82 26.105 155.239 26.049 156.653 26.11C157.286 26.137 157.372 25.918 157.362 25.364C157.326 23.611 157.374 21.856 157.333 20.104C157.32 19.55 157.502 19.449 158.004 19.458C159.578 19.489 161.153 19.5 162.727 19.458C163.316 19.441 163.419 19.633 163.408 20.172C163.372 21.903 163.43 23.636 163.376 25.365C163.356 26.018 163.581 26.113 164.157 26.107C166.81 26.078 169.464 26.107 172.117 26.079C172.669 26.072 172.781 26.246 172.768 26.755C172.733 28.013 172.733 29.272 172.768 30.532C172.781 30.991 172.626 31.079 172.202 31.076C169.46 31.059 166.716 31.076 163.974 31.055C163.506 31.055 163.379 31.162 163.383 31.64C163.405 35.372 163.398 39.105 163.394 42.84C163.355 44.0554 163.559 45.2665 163.994 46.402C164.365 47.3051 165.026 48.0594 165.872 48.5465C166.718 49.0337 167.703 49.2263 168.67 49.094C170.062 49.0164 171.434 48.7291 172.74 48.242C173.163 48.086 173.306 48.179 173.356 48.617C173.494 49.845 173.664 51.068 173.825 52.292C173.856 52.523 173.905 52.709 173.578 52.801C170.478 53.677 167.362 54.286 164.148 53.53C160.532 52.679 158.572 50.239 157.758 46.737C157.39 44.7932 157.252 42.813 157.346 40.837C157.352 39.802 157.346 38.768 157.346 37.737" fill="white"/>
<path d="M107.419 29.714C107.419 24.614 107.428 19.507 107.406 14.404C107.406 13.897 107.529 13.773 108.03 13.785C109.648 13.8197 111.267 13.8197 112.886 13.785C113.386 13.775 113.51 13.902 113.508 14.408C113.492 23.918 113.487 33.4283 113.494 42.939C113.451 44.0397 113.54 45.1417 113.76 46.221C113.867 46.9547 114.246 47.6214 114.821 48.089C115.397 48.5565 116.127 48.7906 116.867 48.745C117.54 48.7934 118.217 48.7547 118.881 48.63C119.23 48.552 119.35 48.659 119.364 49.024C119.412 50.324 119.485 51.624 119.564 52.924C119.58 53.189 119.535 53.313 119.23 53.36C117.152 53.7666 115.016 53.7877 112.93 53.422C109.949 52.776 108.459 50.722 107.836 47.891C107.519 46.2805 107.379 44.64 107.42 42.999C107.428 38.5703 107.428 34.1417 107.42 29.713" fill="white"/>
<path d="M209.606 39.645C209.606 43.917 209.594 48.188 209.62 52.458C209.62 53.018 209.484 53.176 208.92 53.163C207.28 53.124 205.639 53.134 203.998 53.163C203.581 53.169 203.473 53.055 203.473 52.639C203.484 43.9617 203.484 35.284 203.473 26.606C203.473 26.198 203.564 26.073 203.989 26.08C205.653 26.108 207.316 26.122 208.98 26.074C209.565 26.058 209.616 26.289 209.614 26.767C209.6 31.06 209.606 35.354 209.606 39.648" fill="white"/>
<path d="M206.593 20.976C206.106 20.9924 205.621 20.9105 205.167 20.7352C204.712 20.5598 204.298 20.2946 203.948 19.9555C203.599 19.6164 203.321 19.2102 203.132 18.7614C202.943 18.3125 202.846 17.8301 202.848 17.343C202.85 16.856 202.949 16.3743 203.141 15.9266C203.334 15.479 203.614 15.0747 203.966 14.7379C204.317 14.4011 204.734 14.1387 205.189 13.9664C205.645 13.7941 206.13 13.7154 206.617 13.735C207.101 13.7155 207.584 13.7976 208.035 13.9759C208.486 14.1542 208.894 14.4248 209.234 14.7703C209.574 15.1158 209.838 15.5286 210.009 15.9822C210.18 16.4357 210.254 16.9201 210.227 17.404C210.242 17.8825 210.158 18.3591 209.98 18.8035C209.802 19.248 209.534 19.6507 209.193 19.9863C208.851 20.3219 208.444 20.5832 207.997 20.7535C207.549 20.9238 207.071 20.9996 206.593 20.976Z" fill="white"/>
</g>
<defs>
<clipPath id="clip0_2_5">
<rect width="210.227" height="66.718" fill="white"/>
</clipPath>
</defs>
</svg>
