<svg width="42" height="42" viewBox="0 0 42 42" fill="none" xmlns="http://www.w3.org/2000/svg">
<g clip-path="url(#clip0_3_56)">
<path d="M20.9164 0.977585C10.5603 0.977585 11.2061 5.49115 11.2061 5.49115L11.218 10.1679H21.0982V11.5716H7.29753C7.29753 11.5716 0.669922 10.8153 0.669922 21.3175C0.669922 31.8197 6.45293 31.4459 6.45293 31.4459H9.90269V26.5737C9.90269 26.5737 9.71745 20.7618 15.5956 20.7618H25.3943C25.3943 20.7618 30.9003 20.8502 30.9003 15.4122V6.41902C30.9003 6.41902 31.7347 0.977585 20.9147 0.977585H20.9164ZM15.4682 4.12145C16.4504 4.12145 17.2457 4.92016 17.2457 5.9092C17.2457 6.89655 16.4504 7.69526 15.4682 7.69526C14.4842 7.69526 13.6906 6.89655 13.6906 5.9092C13.6906 4.92016 14.4842 4.12145 15.4682 4.12145Z" fill="white"/>
<path d="M21.2104 41.7629C31.5631 41.7629 30.9173 37.2493 30.9173 37.2493L30.9054 32.5726H21.0252V31.1689H34.8293C34.8293 31.1689 41.4569 31.9251 41.4569 21.4229C41.4569 10.9207 35.6722 11.2946 35.6722 11.2946H32.2224V16.1667C32.2224 16.1667 32.4077 21.9786 26.5295 21.9786H16.7325C16.7325 21.9786 11.2265 21.8902 11.2265 27.3283V36.3214C11.2265 36.3214 10.3904 41.7629 21.2104 41.7629ZM26.6587 38.619C25.6747 38.619 24.8811 37.8203 24.8811 36.8312C24.8811 35.8439 25.6747 35.0452 26.6587 35.0452C27.6409 35.0452 28.4362 35.8439 28.4362 36.8312C28.4362 37.8203 27.6409 38.619 26.6587 38.619Z" fill="white"/>
</g>
<defs>
<clipPath id="clip0_3_56">
<rect width="40.7853" height="40.7853" fill="white" transform="translate(0.669922 0.977585)"/>
</clipPath>
</defs>
</svg>
